<?xml version="1.0" encoding="UTF-8"?>
<svg xmlns="http://www.w3.org/2000/svg" xmlns:xlink="http://www.w3.org/1999/xlink" width="146px" height="24px" viewBox="0 0 109 18" version="1.1">
<defs>
<filter id="alpha" filterUnits="objectBoundingBox" x="0%" y="0%" width="100%" height="100%">
  <feColorMatrix type="matrix" in="SourceGraphic" values="0 0 0 0 1 0 0 0 0 1 0 0 0 0 1 0 0 0 1 0"/>
</filter>
<mask id="mask0">
  <g filter="url(#alpha)">
<rect x="0" y="0" width="109" height="18" style="fill:rgb(0%,0%,0%);fill-opacity:0.501961;stroke:none;"/>
  </g>
</mask>
<clipPath id="clip1">
  <rect x="0" y="0" width="109" height="18"/>
</clipPath>
<g id="surface5" clip-path="url(#clip1)">
<path style=" stroke:none;fill-rule:evenodd;fill:rgb(95.294118%,37.647059%,23.529412%);fill-opacity:1;" d="M 11.648438 9.941406 C 11.648438 8.757812 10.714844 7.800781 9.566406 7.800781 C 8.417969 7.800781 7.488281 8.757812 7.488281 9.941406 C 7.488281 11.125 8.417969 12.085938 9.566406 12.085938 C 10.714844 12.085938 11.648438 11.125 11.648438 9.941406 Z M 11.648438 9.941406 "/>
</g>
</defs>
<g id="surface1">
<path style=" stroke:none;fill-rule:nonzero;fill:rgb(14.117647%,17.647059%,32.156863%);fill-opacity:1;" d="M 29.875 12.605469 L 29.875 6.414062 C 29.875 5.230469 30.148438 4.300781 30.691406 3.617188 C 31.242188 2.933594 31.925781 2.59375 32.746094 2.59375 C 34.355469 2.59375 35.164062 3.777344 35.164062 6.140625 L 35.164062 12.605469 L 37.988281 12.605469 L 37.988281 5.421875 C 37.988281 3.609375 37.613281 2.257812 36.863281 1.359375 C 36.117188 0.460938 35.046875 0.0117188 33.660156 0.0117188 C 32.746094 0.0117188 31.910156 0.1875 31.15625 0.539062 C 31.632812 0.28125 32.148438 0.0976562 32.679688 0 L 32.632812 0 C 28.464844 0.699219 27.238281 0.0117188 25.519531 0.0117188 C 24.796875 0.0117188 24.101562 0.175781 23.429688 0.503906 C 23.871094 0.269531 24.34375 0.0976562 24.832031 0 L 24.796875 0 L 24.796875 0.199219 L 18.8125 0.199219 L 18.8125 12.59375 L 21.636719 12.59375 L 21.636719 6.414062 C 21.636719 5.230469 21.914062 4.300781 22.46875 3.617188 C 23.023438 2.933594 23.734375 2.59375 24.597656 2.59375 C 26.230469 2.59375 27.050781 3.777344 27.050781 6.140625 L 27.050781 12.605469 Z M 45.625 12.792969 C 47.304688 12.792969 48.609375 12.171875 49.546875 10.929688 L 49.585938 10.929688 L 49.585938 12.59375 L 52.285156 12.59375 L 52.285156 0.199219 L 49.460938 0.199219 L 49.460938 1.6875 L 49.410156 1.6875 C 48.476562 0.570312 47.207031 0.0117188 45.601562 0.0117188 C 46.199219 -0.0859375 46.808594 -0.0898438 47.40625 0 C 46.878906 0.5625 46.464844 1.246094 46.160156 2.046875 C 46.847656 1.175781 47.726562 0.472656 48.726562 0 C 48.726562 0.945312 48.878906 1.8125 49.183594 2.605469 C 49.488281 3.402344 49.902344 4.070312 50.429688 4.617188 C 50.835938 1.804688 53.296875 -0.234375 56.121094 -0.0976562 C 58.945312 0.0390625 61.203125 2.304688 61.339844 5.140625 C 61.472656 7.976562 59.441406 10.453125 56.644531 10.859375 Z M 46.070312 10.210938 C 45.027344 10.210938 44.175781 9.863281 43.519531 9.164062 C 42.863281 8.464844 42.53125 7.566406 42.53125 6.464844 C 42.53125 5.296875 42.871094 4.359375 43.550781 3.652344 C 44.226562 2.945312 45.070312 2.59375 46.082031 2.59375 C 47.085938 2.59375 47.917969 2.964844 48.582031 3.703125 C 49.242188 4.445312 49.574219 5.363281 49.574219 6.464844 C 49.574219 7.566406 49.234375 8.464844 48.554688 9.164062 C 47.878906 9.863281 47.050781 10.210938 46.070312 10.210938 Z M 66.3125 12.605469 L 66.3125 5.296875 C 66.3125 3.503906 65.914062 2.171875 65.109375 1.308594 C 64.308594 0.445312 63.203125 0.0117188 61.789062 0.0117188 C 62.8125 1.558594 62.992188 3.519531 62.269531 5.230469 L 62.230469 5.230469 L 62.230469 0.199219 L 59.410156 0.199219 L 59.410156 12.59375 L 62.230469 12.59375 L 62.230469 6.367188 C 62.230469 5.175781 62.523438 4.246094 63.101562 3.585938 C 63.679688 2.925781 64.457031 2.59375 65.425781 2.59375 C 65.871094 2.59375 66.25 2.652344 66.566406 2.765625 C 66.882812 2.882812 67.160156 3.070312 67.398438 3.332031 C 67.636719 3.59375 67.8125 3.945312 67.929688 4.394531 C 68.042969 4.839844 68.101562 5.386719 68.101562 6.03125 L 68.101562 12.605469 L 70.925781 12.605469 Z M 73.941406 12.792969 C 75.617188 12.792969 76.925781 12.171875 77.863281 10.929688 L 77.898438 10.929688 L 77.898438 12.59375 L 80.597656 12.59375 L 80.597656 0.199219 L 77.773438 0.199219 L 77.773438 1.6875 L 77.726562 1.6875 C 76.789062 0.570312 75.519531 0.0117188 73.917969 0.0117188 C 75.351562 1.335938 76.03125 3.296875 75.71875 5.230469 C 75.195312 5.792969 74.777344 6.476562 74.472656 7.277344 C 75.160156 6.40625 76.039062 5.703125 77.042969 5.230469 C 77.042969 6.175781 77.195312 7.042969 77.496094 7.835938 C 77.800781 8.632812 78.21875 9.300781 78.742188 9.847656 C 79.148438 7.039062 81.613281 4.996094 84.433594 5.132812 C 87.257812 5.269531 89.515625 7.535156 89.652344 10.375 C 89.785156 13.210938 87.753906 15.683594 84.957031 16.089844 Z M 74.382812 10.210938 C 73.339844 10.210938 72.488281 9.863281 71.832031 9.164062 C 71.175781 8.464844 70.84375 7.566406 70.84375 6.464844 C 70.84375 5.296875 71.183594 4.359375 71.863281 3.652344 C 72.539062 2.945312 73.386719 2.59375 74.398438 2.59375 C 75.398438 2.59375 76.230469 2.964844 76.894531 3.703125 C 77.554688 4.445312 77.886719 5.363281 77.886719 6.464844 C 77.886719 7.566406 77.546875 8.464844 76.867188 9.164062 C 76.191406 9.863281 75.363281 10.210938 74.382812 10.210938 Z M 88.621094 17.804688 C 89.515625 17.804688 90.320312 17.699219 91.027344 17.488281 C 91.734375 17.277344 92.328125 16.984375 92.808594 16.609375 C 93.542969 14.5 95.632812 13.183594 97.839844 13.4375 C 100.050781 13.6875 101.792969 15.4375 102.042969 17.65625 C 102.292969 19.875 100.980469 21.972656 98.882812 22.714844 C 99.023438 22.066406 99.09375 21.359375 99.09375 20.589844 L 99.09375 0.199219 L 96.269531 0.199219 L 96.269531 1.5 L 96.222656 1.5 C 102.050781 1.808594 106.53125 6.808594 106.222656 12.664062 C 105.914062 18.523438 100.941406 23.023438 95.109375 22.714844 C 93.984375 22.714844 92.972656 22.980469 92.078125 23.519531 C 91.179688 24.058594 90.484375 24.804688 89.984375 25.757812 C 89.488281 26.714844 89.242188 27.789062 89.242188 28.980469 C 89.242188 30.1875 89.5 31.257812 90.023438 32.191406 C 90.546875 33.128906 91.261719 33.84375 92.175781 34.34375 C 93.085938 34.847656 94.113281 35.097656 95.257812 35.097656 C 96.785156 35.097656 98.03125 34.589844 98.992188 33.582031 L 99.042969 33.582031 L 99.042969 34.898438 C 99.042969 35.773438 98.722656 36.503906 98.082031 37.082031 C 97.4375 37.660156 96.535156 37.949219 95.367188 37.949219 C 94.570312 37.949219 93.871094 37.851562 93.265625 37.652344 C 92.660156 37.453125 91.964844 37.144531 91.175781 36.722656 L 90.511719 39.226562 C 91.199219 39.640625 91.976562 39.960938 92.839844 40.183594 C 93.703125 40.40625 94.601562 40.519531 95.527344 40.519531 Z M 88.71875 9.765625 C 87.699219 9.765625 86.859375 9.441406 86.199219 8.789062 C 85.535156 8.140625 85.207031 7.269531 85.207031 6.179688 C 85.207031 5.128906 85.53125 4.273438 86.179688 3.609375 C 86.828125 2.949219 87.675781 2.617188 88.71875 2.617188 C 89.714844 2.617188 90.542969 2.945312 91.203125 3.597656 C 91.867188 4.25 92.199219 5.101562 92.199219 6.140625 C 92.199219 7.191406 91.875 8.058594 91.230469 8.742188 C 90.585938 9.421875 89.746094 9.765625 88.71875 9.765625 Z M 102.96875 12.792969 C 104.121094 12.792969 105.132812 12.582031 106.007812 12.160156 C 106.882812 11.738281 107.601562 11.167969 108.160156 10.449219 L 106.1875 8.746094 C 105.414062 9.722656 104.390625 10.210938 103.117188 10.210938 C 102.214844 10.210938 101.445312 9.960938 100.816406 9.453125 C 100.1875 8.949219 99.785156 8.257812 99.601562 7.382812 L 108.578125 7.382812 C 108.628906 7.085938 108.652344 6.707031 108.652344 6.253906 C 108.652344 5.054688 108.410156 3.984375 107.925781 3.039062 C 113.332031 3.652344 117.222656 8.554688 116.613281 13.988281 C 116 19.417969 111.121094 23.328125 105.714844 22.714844 C 104.804688 22.175781 103.75 21.90625 102.558594 21.90625 C 102.734375 22.164062 102.886719 22.433594 103.019531 22.714844 C 102.28125 23.023438 101.644531 23.457031 101.109375 24.007812 C 100.578125 24.5625 100.15625 25.238281 99.851562 26.03125 C 99.550781 26.828125 99.398438 27.691406 99.398438 28.625 C 99.398438 29.890625 99.671875 31.015625 100.222656 31.996094 C 100.773438 32.972656 101.527344 33.726562 102.480469 34.246094 C 103.433594 34.769531 104.503906 35.027344 105.695312 35.027344 Z M 105.816406 5.085938 L 99.652344 5.085938 C 99.851562 4.292969 100.230469 3.679688 100.800781 3.246094 C 101.367188 2.808594 102.039062 2.59375 102.820312 2.59375 C 103.609375 2.59375 104.261719 2.816406 104.777344 3.261719 C 105.289062 3.710938 105.636719 4.316406 105.816406 5.085938 Z M 105.816406 5.085938 "/>
<path style=" stroke:none;fill-rule:evenodd;fill:rgb(95.294118%,37.647059%,23.529412%);fill-opacity:1;" d="M 2.078125 7.714844 C 3.226562 7.714844 4.160156 8.671875 4.160156 9.855469 C 4.160156 11.039062 3.226562 12 2.078125 12 C 0.929688 12 0 11.039062 0 9.855469 C 0 8.671875 0.929688 7.714844 2.078125 7.714844 Z M 2.078125 0 C 3.226562 0 4.160156 0.960938 4.160156 2.144531 C 4.160156 3.328125 3.226562 4.285156 2.078125 4.285156 C 0.929688 4.285156 0 3.328125 0 2.144531 C 0 0.960938 0.929688 0 2.078125 0 Z M 9.566406 0 C 10.714844 0 11.648438 0.960938 11.648438 2.144531 C 11.648438 3.328125 10.714844 4.285156 9.566406 4.285156 C 8.417969 4.285156 7.488281 3.328125 7.488281 2.144531 C 7.488281 0.960938 8.417969 0 9.566406 0 Z M 9.566406 0 "/>
<use xlink:href="#surface5" mask="url(#mask0)"/>
</g>
</svg>
